<svg xmlns="http://www.w3.org/2000/svg" viewBox="0 0 250.06 326.9"><defs><style>.cls-1{fill:#fff;}</style></defs><title>Asset 1</title><g id="Layer_2" data-name="Layer 2"><g id="Layer_1-2" data-name="Layer 1"><path d="M128.64,34V30.59l2-.29-2.06-5.72L118,26.07,116,32.37l2.47-.35v3.45l-8.85,1.24V33.27l2.18-.31L122.48.57,126.57,0l10.77,29.37,2.42-.35v3.45ZM123.38,9.71l-4.17,12.75,8.27-1.16Z"/><path d="M13,113.43l4.51-.63,0-52L6.49,62.34l-.08,7.27-6.4.9V56.72l47.4-6.66V63.85l-6.4.89.08-7.27L30,59l0,52,4.5-.63v6.52L13,120Z"/><path d="M62.76,113l-12.43,1.74,0-36.39A2.28,2.28,0,0,0,47.65,76a3.21,3.21,0,0,0-2.61,3L45,83.21l-3.87.54.06-4.14A13.11,13.11,0,0,1,52,67.06a9.24,9.24,0,0,1,9.45,4.46c2.59-4.5,5.61-7.86,9.48-8.41a6.92,6.92,0,0,1,8.07,7,9.72,9.72,0,0,1-8.07,9.31,6.49,6.49,0,0,1-7.26-3.94L62.77,77Z"/><path d="M124.65,97.56a3.2,3.2,0,0,0,2.61-3l.06-4.15,3.87-.54L131.13,94a13.09,13.09,0,0,1-10.82,12.55,9.11,9.11,0,0,1-10.25-6.18c-3.14,5.12-7.6,8.69-12.46,9.38-9.56,1.34-17.2-8-17.26-22.76S88,60.71,97.59,59.37c4.6-.65,8.83,1.33,12,5.21V64a7.47,7.47,0,0,1,6.16-7.21A5.4,5.4,0,0,1,122,62.28l0,33A2.27,2.27,0,0,0,124.65,97.56ZM110,82.8c-.06-10.19-3-16.94-8.16-16.22s-8.22,8.23-8.25,18.53,3,16.94,8.17,16.22S110,93,110,82.8Z"/><path d="M153,60.59c2.27-4.18,5.7-9.81,12.37-10.75a10.37,10.37,0,0,1,12.15,10.61l-.06,27a2.28,2.28,0,0,0,2.71,2.29,3.21,3.21,0,0,0,2.61-3l.06-4.15L186.7,82l-.06,4.14a13.09,13.09,0,0,1-10.82,12.55A9.31,9.31,0,0,1,165,89.22l.06-26.38a3.26,3.26,0,0,0-3.77-3.33c-2.07.29-3.82,2.28-6.89,7.86l-2.56,4.68,0,28.39-12.44,1.75,0-36.4a2.27,2.27,0,0,0-2.71-2.28,3.18,3.18,0,0,0-2.6,3l-.07,4.14-3.87.55.06-4.15a13.12,13.12,0,0,1,10.83-12.55,9.28,9.28,0,0,1,10.71,8.24Z"/><path d="M218,67.17c3.22,4,4.77,7.78,4.81,12C222.83,88,214.72,93.72,206,95c-7.57,1.07-15.44-3.25-19.5-12.51L197.2,61.91a10,10,0,0,1-3-7.11A11.37,11.37,0,0,1,204,43.4a7.16,7.16,0,0,1,8.34,7,9.64,9.64,0,0,1-2.68,6.44Zm-13.5,21c3.43-.48,5.91-3.13,5.44-6.46A10.59,10.59,0,0,0,208,76.93L201.2,67.5l-7.57,14.12C195.82,85.44,199.79,88.84,204.47,88.18Z"/><path d="M224.05,58.78,250,55.13l.06,7.62L224.11,66.4Z"/><path d="M9.9,139.09l-3.07.43-.06-4.44L21.38,133l.06,4.43-3.07.44,0,35.43,3.07-.43v4.45L6.8,179.4V175l3.07-.44Z"/><path d="M38.13,148c1.54-2.84,3.88-6.68,8.43-7.32a7.07,7.07,0,0,1,8.27,7.23l0,18.41a1.56,1.56,0,0,0,1.85,1.56,2.19,2.19,0,0,0,1.78-2.07l0-2.82,2.64-.37-.05,2.82a8.92,8.92,0,0,1-7.37,8.55,6.34,6.34,0,0,1-7.36-6.48l0-18a2.22,2.22,0,0,0-2.57-2.27c-1.41.2-2.6,1.55-4.7,5.35l-1.74,3.19,0,19.34-8.47,1.19,0-24.79a1.56,1.56,0,0,0-1.85-1.56A2.19,2.19,0,0,0,25.3,152l0,2.82-2.64.37.05-2.82A8.92,8.92,0,0,1,30,143.83a6.32,6.32,0,0,1,7.3,5.61Z"/><path d="M78.51,140.34c-4.36.61-6.91,6.54-6.89,13.8,0,6.32,1.82,12.51,7.22,11.76,3.07-.44,5.5-3.66,6.25-7.21l3.46.52c-1.3,5.88-5.08,10.23-11.58,11.14-8.72,1.23-14.68-6-14.68-14.9s5.39-17.79,14.11-19c7.67-1.08,11.73,3.73,11.77,8.92,0,2.64-2.12,5.44-4.76,5.81A4.08,4.08,0,0,1,78.69,147a5.73,5.73,0,0,1,4.13-5.4A4.83,4.83,0,0,0,78.51,140.34Z"/><path d="M100,167.42A6.32,6.32,0,0,1,92.68,161V123l8.47-1.19v37.94a1.54,1.54,0,0,0,1.84,1.55,2.16,2.16,0,0,0,1.78-2.06l0-2.83,2.64-.37,0,2.83A8.92,8.92,0,0,1,100,167.42Z"/><path d="M129.76,157.11c-1.49,2.72-3.94,6.69-8.48,7.33a7,7,0,0,1-8.22-7.23l0-17.54a1.56,1.56,0,0,0-1.85-1.56,2.17,2.17,0,0,0-1.77,2.07l0,2.82-2.64.37,0-2.82a8.92,8.92,0,0,1,7.37-8.55,6.33,6.33,0,0,1,7.36,6.48l0,17.1a2.23,2.23,0,0,0,2.58,2.26c1.41-.19,2.56-1.36,4.69-5.35l1.58-3V130.23l8.47-1.19v25.42a1.55,1.55,0,0,0,1.85,1.55,2.16,2.16,0,0,0,1.77-2.06l0-2.82,2.64-.38-.05,2.83a8.92,8.92,0,0,1-7.37,8.55,6.29,6.29,0,0,1-7.37-6.1Z"/><path d="M166.45,140.62a12.82,12.82,0,0,1,3.28,8.18c0,6-5.49,9.91-11.45,10.75-5.16.73-10.52-2.21-13.28-8.52l7.3-14a6.89,6.89,0,0,1-2.06-4.84,7.76,7.76,0,0,1,6.67-7.77,4.88,4.88,0,0,1,5.68,4.78,6.58,6.58,0,0,1-1.82,4.39Zm-9.19,14.32c2.33-.33,4-2.13,3.7-4.4a7.36,7.36,0,0,0-1.28-3.27L155,140.85l-5.16,9.62C151.36,153.07,154.06,155.39,157.26,154.94Z"/><path d="M182.15,114.69a5.1,5.1,0,0,1-4.25,4.92,3.63,3.63,0,0,1-4.22-3.73,5.1,5.1,0,0,1,4.25-4.92A3.63,3.63,0,0,1,182.15,114.69ZM181.08,156a6.3,6.3,0,0,1-7.36-6.47V124.14l8.48-1.19v25.42a1.55,1.55,0,0,0,1.85,1.55,2.16,2.16,0,0,0,1.77-2.06l0-2.83,2.64-.37,0,2.83A8.91,8.91,0,0,1,181.08,156Z"/><path d="M202.32,153.05a7,7,0,0,1-8.18-7V128.28a1.55,1.55,0,0,0-1.84-1.56,2.19,2.19,0,0,0-1.78,2.07l0,2.82-2.64.37,0-2.82a8.93,8.93,0,0,1,7.38-8.55,6.33,6.33,0,0,1,7.35,6.48l0,16.22c0,1.44.62,3.11,2.46,2.85,5-.71,8.27-11.12,8.31-17.95-.43.06-.9.25-1.33.31a4.67,4.67,0,0,1-5.43-4.81,6.54,6.54,0,0,1,5.43-6.33c3-.42,6,1.54,6,7.17C218.07,138.63,211.34,151.78,202.32,153.05Z"/><path d="M231.84,133.25c0,8.77,2.95,10.73,6.57,10.22s6.06-5,6.39-8l3.54.25c-.58,4.78-3.76,11.05-11.81,12.18-8.71,1.22-14.66-5.89-14.66-14.78s5.37-17.91,14.64-19.21c8.23-1.16,11.69,3.42,11.74,7.3C248.29,126.43,242.52,131.75,231.84,133.25Zm8-11.9c0-2.51-.91-3.81-2.5-3.59-4.12.58-5.55,7.73-5.56,12.18A9,9,0,0,0,239.87,121.35Z"/><path d="M6.54,239.48,9.71,239l0-36.58-3.16.45-.07-4.58,14.2-2c7.79-1.09,14.8,1.41,14.78,10.46a12.61,12.61,0,0,1-7.11,10.57,9.76,9.76,0,0,1,9.33,9.8c0,9.18-7.59,13.6-15.39,14.7L6.53,244.07ZM29,228.38c0-4.39-2.74-8-7-7.41l-3.48.49,0,16.34,3.49-.49C25.87,236.76,29,233,29,228.38Zm-10.5-11.25,1.9-.27c3.93-.55,6.38-3.81,6.39-8.85,0-4.78-2.43-7.61-6.36-7l-1.9.26Z"/><path d="M68.33,218.84c0,10.33-5.8,18.52-13.66,19.63s-14.19-5.31-14.23-15.71,6.37-18.6,14.23-19.71S68.3,208.5,68.33,218.84ZM57,232.32c3.86-.55,7-5.64,7-12.88s-3.1-11.45-7-10.91-7,5.64-7,12.87S53.17,232.86,57,232.32Zm-3.94-9.6h0Z"/><path d="M99.38,214.48c0,10.33-5.8,18.52-13.66,19.62s-14.18-5.31-14.22-15.71,6.37-18.6,14.22-19.7S99.35,204.14,99.38,214.48ZM88.09,228c3.87-.54,7-5.64,7-12.87s-3.1-11.46-7-10.91-7,5.64-7,12.87S84.23,228.5,88.09,228Zm-3.93-9.59h0Z"/><path d="M120.87,210.1l8,11.21a1.79,1.79,0,0,0,1.63.61,2.24,2.24,0,0,0,1.84-2.13l0-2.91,2.73-.39-.05,2.92a9.21,9.21,0,0,1-7.61,8.82c-4.18.59-6.63-2.56-7.7-4.22l-6.86-10.6v15.7l-8.74,1.23,0-45.75,8.74-1.23,0,28.37,10-7.87a5,5,0,0,1-2.35-4.32,6.76,6.76,0,0,1,5.61-6.54,4.85,4.85,0,0,1,5.67,4.95A7.07,7.07,0,0,1,129.5,203Z"/><path d="M150.21,219.29l3.17-.45,0-36.58-5.07.71-.06-4.58,18.63-2.62c8.74-1.22,15.8,3.47,15.8,11.29s-7,14.49-15.75,15.72l-4.82.68v14.15l3.16-.44v4.59l-15.08,2.12Zm23.44-31c0-4.65-2.18-8.61-6.68-8l-4.82.68v17.84l4.82-.68C171.46,197.56,173.66,193,173.65,188.33Z"/><path d="M194.77,176.25a5.27,5.27,0,0,1-4.4,5.08,3.75,3.75,0,0,1-4.35-3.85,5.26,5.26,0,0,1,4.39-5.07A3.76,3.76,0,0,1,194.77,176.25Zm-1.11,42.68a6.51,6.51,0,0,1-7.6-6.68V186l8.74-1.23V211a1.59,1.59,0,0,0,1.9,1.6,2.24,2.24,0,0,0,1.83-2.13l.05-2.91,2.72-.39,0,2.92A9.22,9.22,0,0,1,193.66,218.93Z"/><path d="M211.72,216.39a6.54,6.54,0,0,1-7.6-6.68V170.55l8.75-1.23v39.16a1.59,1.59,0,0,0,1.9,1.6A2.24,2.24,0,0,0,216.6,208l.05-2.91,2.72-.38,0,2.91A9.21,9.21,0,0,1,211.72,216.39Z"/><path d="M230.91,197.54c0,9.05,3,11.08,6.78,10.55s6.26-5.14,6.6-8.23l3.66.26c-.6,4.93-3.89,11.41-12.2,12.57-9,1.27-15.13-6.08-15.13-15.25s5.55-18.49,15.11-19.84c8.5-1.19,12.07,3.54,12.11,7.54C247.89,190.5,241.94,196,230.91,197.54Zm8.29-12.28c0-2.59-.94-3.94-2.59-3.71-4.24.6-5.73,8-5.73,12.57A9.27,9.27,0,0,0,239.2,185.26Z"/><path d="M3.81,282.35v-5.16l5-.7V262l9.84-1.39v14.55l12.48-1.76v5.16l-9.62,1.36c3.7,1.51,9.07,9.19,9,19.31,0,15-7.08,26.73-13.36,27.61S8.87,323,8.86,305.86L8.8,281.65ZM18.46,304.8c0,7.85.46,14.19,1.75,14,2.35-.33,5-8.71,5-18.6,0-8.29-3.78-15.46-6.81-17.37Z"/><path d="M66.23,286.74c0,11.63-6.52,20.84-15.36,22.08s-16-6-16-17.67S42,270.22,50.87,269,66.2,275.11,66.23,286.74Zm-12.7,15.17c4.35-.62,7.91-6.35,7.85-14.49s-3.48-12.89-7.83-12.28-7.91,6.35-7.85,14.49S49.18,302.52,53.53,301.91Zm-4.43-10.8h0Z"/><path d="M84.77,302.75l-9.84,1.38,0-28.79a1.8,1.8,0,0,0-2.14-1.81,2.54,2.54,0,0,0-2.07,2.4l0,3.28-3.07.43.05-3.28a10.36,10.36,0,0,1,8.56-9.93A7.31,7.31,0,0,1,83.72,270c2-3.56,4.43-6.22,7.5-6.65a5.47,5.47,0,0,1,6.38,5.57,7.69,7.69,0,0,1-6.38,7.37,5.15,5.15,0,0,1-5.75-3.12l-.7,1.19Z"/><path d="M115.31,252.14l-.06-5.15,13.4-1.89,0,25.08,12.41-20.79c2.42-4,4.21-7.36,8.34-7.94a5.42,5.42,0,0,1,6.31,5.59,7.61,7.61,0,0,1-6.31,7.36,5.46,5.46,0,0,1-4.63-1.39L137,266l12.22,20.17a2.33,2.33,0,0,0,2.21,1.21,2.53,2.53,0,0,0,2.06-2.4v-2.54l3.35-.47v2.54c0,5.39-2.55,9.81-7.68,10.54-4,.56-6.85-1.15-8.28-3.57l-12.18-20.9,0,26-13.41,1.88V293.3l3.57-.5,0-41.16Z"/><path d="M169.69,244.28a5.93,5.93,0,0,1-4.95,5.71,4.22,4.22,0,0,1-4.89-4.33,5.92,5.92,0,0,1,4.94-5.71A4.23,4.23,0,0,1,169.69,244.28Zm-1.25,48a7.33,7.33,0,0,1-8.55-7.52V255.26l9.85-1.39v29.52a1.8,1.8,0,0,0,2.14,1.81,2.53,2.53,0,0,0,2.07-2.4l0-3.28,3.07-.43-.05,3.28A10.36,10.36,0,0,1,168.44,292.3Z"/><path d="M201.52,234.86l9.84-1.38v44.06a1.81,1.81,0,0,0,2.15,1.81,2.53,2.53,0,0,0,2.06-2.4l0-3.28,3.06-.43-.05,3.28a10.36,10.36,0,0,1-8.56,9.93,7.21,7.21,0,0,1-8.11-4.9c-2.48,4.06-6,6.88-9.86,7.42-7.56,1.07-13.61-6.3-13.66-18s6.1-20.78,13.66-21.84c3.64-.51,7,1.05,9.45,4.12Zm.39,32.81c0-8.06-2.39-13.4-6.45-12.83s-6.51,6.51-6.53,14.66,2.4,13.4,6.46,12.83S202,275.74,201.91,267.67Z"/><path d="M243.43,261.47a14.94,14.94,0,0,1,3.81,9.5c0,7-6.38,11.52-13.3,12.49-6,.84-12.21-2.57-15.42-9.9L227,257.31a7.94,7.94,0,0,1-2.39-5.62,9,9,0,0,1,7.75-9,5.66,5.66,0,0,1,6.6,5.55,7.65,7.65,0,0,1-2.12,5.09ZM232.75,278.1c2.71-.38,4.67-2.47,4.3-5.11a8.42,8.42,0,0,0-1.48-3.79l-5.41-7.46-6,11.17C225.9,275.93,229,278.62,232.75,278.1Z"/><path class="cls-1" d="M124.93,3.82l9,26.12-2.14.3-8-23Z"/><path class="cls-1" d="M23.71,59.59l0,52.56-4.06.57,0-52.56Z"/><path class="cls-1" d="M52.49,78c0-2.48-2-4.69-4.61-4a5.22,5.22,0,0,1,3-1.43,4.7,4.7,0,0,1,5.65,4.9v33.92l-4.06.57Z"/><path class="cls-1" d="M82.46,86.63c0-13.88,8-26,17.22-24.66-7.87,2.21-12.49,11.22-12.53,24,0,12.22,4.38,20.7,12.54,20.57C91.21,110.3,82.51,101.32,82.46,86.63ZM120.2,104a7.28,7.28,0,0,1-8.57-7.34l.06-32.91a4.61,4.61,0,0,1,4-4.51l0,36.85c-.08,4.7,2.42,7.47,6.79,7.13A7.62,7.62,0,0,1,120.2,104Z"/><path class="cls-1" d="M141.61,65.45c0-2.49-2-4.69-4.61-4A5.33,5.33,0,0,1,140,60a4.71,4.71,0,0,1,5.66,4.91l0,33.91-4.05.57Zm20.09-8.06a6,6,0,0,1,2.86-1.23c3.16-.45,6.72,1.35,6.7,5.76l-.06,26.39c0,4.77,2.43,7.47,6.79,7.13a7.53,7.53,0,0,1-2.28.78,7.28,7.28,0,0,1-8.57-7.34l.06-26.39C167.19,59.83,165.53,56.48,161.7,57.39Z"/><path class="cls-1" d="M212.13,82.09a12.36,12.36,0,0,0-2.63-7L198.09,59.35a8.07,8.07,0,0,1-1.83-5.17c.05-2.3,1.09-5.39,3.57-6.66-1.77,3.75-.77,6.27,1.36,9L213,71.78c1.23,1.57,3.54,5.56,3.49,9.15-.06,5.43-4.31,7.87-8.57,8.28C210.4,88,212.11,85.87,212.13,82.09Z"/><path class="cls-1" d="M14.05,138.27l0,35.81-2.77.38,0-35.8Z"/><path class="cls-1" d="M30.34,151.25a2.59,2.59,0,0,0-3.14-2.75,3.62,3.62,0,0,1,2.05-1,3.2,3.2,0,0,1,3.85,3.34V174l-2.76.39ZM44,145.76a4,4,0,0,1,1.95-.83,3.81,3.81,0,0,1,4.56,3.93l0,18c0,3.25,1.65,5.09,4.63,4.86a5.44,5.44,0,0,1-1.56.53,5,5,0,0,1-5.83-5l0-18C47.77,147.43,46.64,145.15,44,145.76Z"/><path class="cls-1" d="M63.72,155.33c0-8,4.63-15.18,10.92-16.75-3.48,2.43-7.41,7-7.42,16.26s4,12.2,7.48,14C69.41,169.05,63.72,163.78,63.72,155.33Z"/><path class="cls-1" d="M99.93,165.7a5,5,0,0,1-5.84-5l0-36.24,2.76-.39,0,36.24c0,3.32,1.66,5.09,4.63,4.86A5.1,5.1,0,0,1,99.93,165.7Z"/><path class="cls-1" d="M122.79,162.24a4,4,0,0,1-1.55.53,5.84,5.84,0,0,1-6.76-5.81l0-17.53a2.59,2.59,0,0,0-3.14-2.76,3.62,3.62,0,0,1,2.06-1,3.2,3.2,0,0,1,3.85,3.34l0,17.53C117.22,160.89,119.32,162,122.79,162.24Zm14.83-1.83a5,5,0,0,1-5.83-5l0-23.72,2.76-.39,0,23.73c0,3.25,1.65,5.09,4.63,4.86A5.44,5.44,0,0,1,137.62,160.41Z"/><path class="cls-1" d="M162.44,150.78a8.37,8.37,0,0,0-1.79-4.75l-7.77-10.74a5.45,5.45,0,0,1-1.25-3.52,5.26,5.26,0,0,1,2.43-4.54c-1.21,2.55-.53,4.27.92,6.13l8,10.39A11.54,11.54,0,0,1,165.4,150c-.05,3.7-2.94,5.36-5.85,5.64A4.91,4.91,0,0,0,162.44,150.78Z"/><path class="cls-1" d="M181,154.31a5,5,0,0,1-5.84-5V125.59l2.76-.39,0,23.72c0,3.26,1.65,5.09,4.62,4.86A5.1,5.1,0,0,1,181,154.31Z"/><path class="cls-1" d="M203.83,150.85a4.69,4.69,0,0,1-1.67.55,5.7,5.7,0,0,1-6.64-5.83l0-17.53a2.6,2.6,0,0,0-3.14-2.76,3.56,3.56,0,0,1,2.05-1,3.2,3.2,0,0,1,3.85,3.34l0,17.53C198.26,149.5,200.36,150.65,203.83,150.85Z"/><path class="cls-1" d="M223.29,132.9c0-6.82,3.19-12,6.34-14.54,1.24-1,3.22-2.08,4.11-2-3.2,2.14-6.94,6.73-7,16,0,9.83,4.61,12.31,7.48,14C228.63,146.43,223.25,141.11,223.29,132.9Zm18-11.54c0-2.94-.61-4.36-2.41-5.11,1-.57,5.21.52,5.22,5s-4.69,7.61-7.72,8.35C238.59,128.19,241.25,124.87,241.26,121.36Z"/><path class="cls-1" d="M14,201.61l0,37-2.85.4,0-37Zm14.24,6.14c-.05-3.55-1.3-7.38-4.93-8.35,2.15-.82,7.59,2.48,7.59,8a10.29,10.29,0,0,1-6.25,9.34C27.26,214.36,28.29,211.63,28.27,207.75Zm2.21,20.37c0-4.2-1.72-6.74-4.7-8.19,2.66-.38,7.34,2.58,7.37,7.88,0,6.07-5.07,9.44-8.45,10.17A11,11,0,0,0,30.48,228.12Z"/><path class="cls-1" d="M54.44,236.71c-6.34.89-12.55-4.7-12.53-14.2,0-7.43,3.7-13.19,7.85-15.91,2-1.31,4.62-2.07,5.82-1.78a12.36,12.36,0,0,0-5,2.9c-3.17,3.16-5.29,8.37-5.29,14.31,0,8.67,4.37,14.58,10.47,14.24A3.64,3.64,0,0,1,54.44,236.71Z"/><path class="cls-1" d="M85.49,232.34c-6.33.89-12.55-4.69-12.53-14.2,0-7.43,3.71-13.18,7.85-15.9,2-1.32,4.62-2.07,5.82-1.79a12.54,12.54,0,0,0-5,2.91c-3.17,3.16-5.28,8.36-5.29,14.31,0,8.66,4.38,14.57,10.47,14.23A3.52,3.52,0,0,1,85.49,232.34Z"/><path class="cls-1" d="M105.62,186.09l2.85-.4.06,42.25-2.85.4Zm21.7,40.37a6.11,6.11,0,0,1-5.84-2.92l-6.17-9.41,2.27-1.81,6.93,10.21c1.7,2.48,2.77,3.17,5.32,2.94A5.66,5.66,0,0,1,127.32,226.46Z"/><path class="cls-1" d="M157.7,181.42l0,37-2.85.4,0-37Zm17.42,6.66c-.05-3.55-1.49-7.8-4.63-9,2.58-.49,7.59,2.94,7.6,8.56,0,6.2-4.9,10.19-7.59,10.77C173.33,196.54,175.14,192,175.12,188.08Z"/><path class="cls-1" d="M193.55,217.16a5.13,5.13,0,0,1-6-5.17l0-24.49,2.85-.4,0,24.49c0,3.36,1.71,5.26,4.77,5A5.34,5.34,0,0,1,193.55,217.16Z"/><path class="cls-1" d="M211.61,214.62a5.14,5.14,0,0,1-6-5.16l0-37.42,2.86-.4,0,37.41c0,3.43,1.71,5.26,4.78,5A5.49,5.49,0,0,1,211.61,214.62Z"/><path class="cls-1" d="M222.09,197.18c0-7,3.29-12.41,6.55-15,1.28-1,3.32-2.15,4.24-2-3.31,2.21-7.17,7-7.18,16.52,0,10.14,4.76,12.7,7.72,14.49C227.6,211.14,222.05,205.66,222.09,197.18Zm18.55-11.91c0-3-.63-4.5-2.48-5.27,1-.6,5.37.54,5.38,5.19s-4.84,7.85-8,8.61C237.88,192.31,240.63,188.89,240.64,185.27Z"/><path class="cls-1" d="M17,324.82c-4.35.61-6.46-2.44-6.48-19.16l0-24.5,3.2-.46.05,24.65c.06,17,1.44,18.55,5.09,18.62A3.37,3.37,0,0,1,17,324.82Zm-6.5-61.19,3.21-.45L13.73,276l-3.21.45Z"/><path class="cls-1" d="M50.64,306.85c-7.13,1-14.12-5.29-14.1-16,0-8.36,4.17-14.84,8.83-17.89,2.26-1.49,5.2-2.33,6.55-2a14.22,14.22,0,0,0-5.65,3.27c-3.57,3.56-5.94,9.42-6,16.11,0,9.74,4.92,16.39,11.78,16A3.91,3.91,0,0,1,50.64,306.85Z"/><path class="cls-1" d="M76.63,275.05A3,3,0,0,0,73,271.86a4.2,4.2,0,0,1,2.39-1.14,3.72,3.72,0,0,1,4.47,3.88v26.84l-3.21.45Z"/><path class="cls-1" d="M123.74,250.69l0,41.59-3.21.45,0-41.59Zm24.66,42.49a6.53,6.53,0,0,1-6.23-2.91l-10-17.21,2.08-3.34,11,18.88c1.45,2.56,3.44,3.74,6.33,3.11A6.51,6.51,0,0,1,148.4,293.18Z"/><path class="cls-1" d="M168.35,290.3a5.76,5.76,0,0,1-6.78-5.81l0-27.55,3.21-.45,0,27.55c0,3.78,1.92,5.91,5.38,5.65A6.34,6.34,0,0,1,168.35,290.3Z"/><path class="cls-1" d="M180.13,270.69c0-11,6.34-20.6,13.62-19.51-6.22,1.74-9.87,8.87-9.91,19,0,9.67,3.47,16.38,9.92,16.27C187.06,289.42,180.17,282.32,180.13,270.69ZM210,284.45a5.8,5.8,0,0,1-6.78-5.81l0-42.1,3.2-.45,0,42.1c0,3.85,1.92,5.91,5.38,5.64A6.08,6.08,0,0,1,210,284.45Z"/><path class="cls-1" d="M238.81,273.28a9.78,9.78,0,0,0-2.08-5.53l-9-12.47a6.41,6.41,0,0,1-1.45-4.09c0-1.82.86-4.27,2.83-5.27-1.4,3-.62,5,1.07,7.12l9.33,12.07c1,1.24,2.8,4.41,2.77,7.25-.05,4.29-3.42,6.22-6.79,6.55A5.72,5.72,0,0,0,238.81,273.28Z"/></g></g></svg>