<svg xmlns="http://www.w3.org/2000/svg" viewBox="0 0 149.68 5.14"><defs><style>.cls-1{fill:none;stroke:#000;stroke-miterlimit:10;}</style></defs><title>Asset 1</title><g id="Layer_2" data-name="Layer 2"><g id="Layer_1-2" data-name="Layer 1"><line class="cls-1" x1="0.35" y1="4.78" x2="4.78" y2="0.35"/><line class="cls-1" x1="5.91" y1="0.35" x2="10.34" y2="4.78"/><line class="cls-1" x1="11.47" y1="4.78" x2="15.9" y2="0.35"/><line class="cls-1" x1="17.03" y1="0.35" x2="21.46" y2="4.78"/><line class="cls-1" x1="22.59" y1="4.78" x2="27.02" y2="0.35"/><line class="cls-1" x1="28.15" y1="0.35" x2="32.58" y2="4.78"/><line class="cls-1" x1="33.71" y1="4.78" x2="38.14" y2="0.35"/><line class="cls-1" x1="39.27" y1="0.35" x2="43.7" y2="4.78"/><line class="cls-1" x1="44.83" y1="4.78" x2="49.26" y2="0.35"/><line class="cls-1" x1="50.39" y1="0.35" x2="54.82" y2="4.78"/><line class="cls-1" x1="55.95" y1="4.78" x2="60.38" y2="0.35"/><line class="cls-1" x1="61.51" y1="0.35" x2="65.94" y2="4.78"/><line class="cls-1" x1="67.07" y1="4.78" x2="71.5" y2="0.35"/><line class="cls-1" x1="72.62" y1="0.35" x2="77.06" y2="4.78"/><line class="cls-1" x1="78.18" y1="4.78" x2="82.61" y2="0.35"/><line class="cls-1" x1="83.74" y1="0.35" x2="88.17" y2="4.78"/><line class="cls-1" x1="89.3" y1="4.78" x2="93.73" y2="0.35"/><line class="cls-1" x1="94.86" y1="0.35" x2="99.29" y2="4.78"/><line class="cls-1" x1="100.42" y1="4.78" x2="104.85" y2="0.35"/><line class="cls-1" x1="105.98" y1="0.35" x2="110.41" y2="4.78"/><line class="cls-1" x1="111.54" y1="4.78" x2="115.97" y2="0.35"/><line class="cls-1" x1="117.1" y1="0.35" x2="121.53" y2="4.78"/><line class="cls-1" x1="122.66" y1="4.78" x2="127.09" y2="0.35"/><line class="cls-1" x1="133.78" y1="4.78" x2="138.21" y2="0.35"/><line class="cls-1" x1="139.34" y1="0.35" x2="143.77" y2="4.78"/><line class="cls-1" x1="144.9" y1="4.78" x2="149.33" y2="0.35"/><line class="cls-1" x1="128.22" y1="0.35" x2="132.65" y2="4.78"/></g></g></svg>