<svg id="Layer_1" data-name="Layer 1" xmlns="http://www.w3.org/2000/svg" viewBox="0 0 127.45 5.98"><defs><style>.cls-1{fill:none;stroke:#0055bb;;stroke-miterlimit:10;
stroke-width:0.03rem;
}</style></defs><title>Artboard 2</title><line class="cls-1" x1="0.45" y1="5.7" x2="3.58" y2="0.27"/><line class="cls-1" x1="7.57" y1="5.7" x2="4.45" y2="0.27"/><line class="cls-1" x1="8.42" y1="5.7" x2="11.54" y2="0.27"/><line class="cls-1" x1="15.51" y1="5.7" x2="12.39" y2="0.27"/><line class="cls-1" x1="16.36" y1="5.7" x2="19.49" y2="0.27"/><line class="cls-1" x1="23.48" y1="5.7" x2="20.35" y2="0.27"/><line class="cls-1" x1="24.33" y1="5.7" x2="27.45" y2="0.27"/><line class="cls-1" x1="31.42" y1="5.7" x2="28.3" y2="0.27"/><line class="cls-1" x1="32.28" y1="5.7" x2="35.41" y2="0.27"/><line class="cls-1" x1="39.4" y1="5.7" x2="36.28" y2="0.27"/><line class="cls-1" x1="40.25" y1="5.7" x2="43.37" y2="0.27"/><line class="cls-1" x1="47.35" y1="5.7" x2="44.22" y2="0.27"/><line class="cls-1" x1="48.19" y1="5.7" x2="51.32" y2="0.27"/><line class="cls-1" x1="55.31" y1="5.7" x2="52.18" y2="0.27"/><line class="cls-1" x1="56.16" y1="5.7" x2="59.28" y2="0.27"/><line class="cls-1" x1="63.25" y1="5.7" x2="60.13" y2="0.27"/><line class="cls-1" x1="64.12" y1="5.7" x2="67.24" y2="0.27"/><line class="cls-1" x1="71.24" y1="5.7" x2="68.11" y2="0.27"/><line class="cls-1" x1="72.08" y1="5.7" x2="75.21" y2="0.27"/><line class="cls-1" x1="79.18" y1="5.7" x2="76.06" y2="0.27"/><line class="cls-1" x1="80.03" y1="5.7" x2="83.15" y2="0.27"/><line class="cls-1" x1="87.14" y1="5.7" x2="84.02" y2="0.27"/><line class="cls-1" x1="87.99" y1="5.7" x2="91.12" y2="0.27"/><line class="cls-1" x1="95.09" y1="5.7" x2="91.96" y2="0.27"/><line class="cls-1" x1="95.95" y1="5.7" x2="99.08" y2="0.27"/><line class="cls-1" x1="103.07" y1="5.7" x2="99.94" y2="0.27"/><line class="cls-1" x1="103.92" y1="5.7" x2="107.04" y2="0.27"/><line class="cls-1" x1="111.01" y1="5.7" x2="107.89" y2="0.27"/><line class="cls-1" x1="111.86" y1="5.7" x2="114.98" y2="0.27"/><line class="cls-1" x1="118.98" y1="5.7" x2="115.85" y2="0.27"/><line class="cls-1" x1="119.82" y1="5.7" x2="122.95" y2="0.27"/><line class="cls-1" x1="126.92" y1="5.7" x2="123.8" y2="0.27"/></svg>